<?xml version="1.0" encoding="utf-8"?>
<!-- Generator: Adobe Illustrator 19.1.1, SVG Export Plug-In . SVG Version: 6.00 Build 0)  -->
<svg version="1.1" id="圖層_1" xmlns:sketch="http://www.bohemiancoding.com/sketch/ns"
	 xmlns="http://www.w3.org/2000/svg" xmlns:xlink="http://www.w3.org/1999/xlink" x="0px" y="0px" viewBox="-422 126 64 64"
	 style="enable-background:new -422 126 64 64;" xml:space="preserve" fill="#FFFFFF">
<style type="text/css">
	.st0{fill:none;stroke:#FFFFFF;stroke-linecap:round;stroke-miterlimit:10;}
	.st1{fill:none;stroke:#FFFFFF;stroke-linecap:round;stroke-miterlimit:10;stroke-dasharray:1.0266,2.0532;}
</style>
<g>
	<g>
		<path class="st0" d="M-364.3,147.3c0-0.2-0.1-0.3-0.1-0.5"/>
		<path class="st1" d="M-365.1,144.9c-2.6-6.3-8.6-10.8-15.9-11.3"/>
		<path class="st0" d="M-382,133.5c-0.2,0-0.3,0-0.5,0"/>
		<g>
			<polygon points="-361.6,146 -363.8,151.6 -367.5,146.9 			"/>
		</g>
	</g>
</g>
<g id="XMLID_1_">
	<g>
		<path d="M-360.4,159.9v22c0,0,0,4.9-5.3,4.9h-48c-5.3,0-5.3-4.9-5.3-4.9v-22c0,0,0-4.9,5.3-4.9h48
			C-360.4,155-360.4,159.9-360.4,159.9z M-363.1,181.9v-22c0-0.3-0.1-0.8-0.4-1.3c-0.4-0.7-1-1.1-2.3-1.1h-5.3h-2.7h-36h-2.7h-1.3
			c-1.3,0-1.9,0.4-2.3,1.1c-0.3,0.5-0.4,1.1-0.4,1.3v22c0,0.3,0.1,0.8,0.4,1.3c0.4,0.7,1,1.1,2.3,1.1h1.3h2.7h36h2.7h5.3
			c1.3,0,1.9-0.4,2.3-1.1C-363.2,182.8-363.1,182.2-363.1,181.9z"/>
		<path d="M-367.1,168.5c1.5,0,2.7,1.1,2.7,2.4s-1.2,2.4-2.7,2.4c-1.5,0-2.7-1.1-2.7-2.4S-368.5,168.5-367.1,168.5z"/>
		<rect x="-373.7" y="157.5" width="2.7" height="26.9"/>
		<rect x="-412.4" y="157.5" width="2.7" height="26.9"/>
		<path d="M-413.8,165.4v11.2c0,0.3-0.3,0.5-0.6,0.5h-0.2c-0.3,0-0.6-0.2-0.6-0.5v-11.2c0-0.3,0.3-0.5,0.6-0.5h0.2
			C-414,164.8-413.8,165.1-413.8,165.4z"/>
	</g>
	<g>
	</g>
</g>
<g>
	<path d="M-393.8,132.2h-12.5c-0.3,0-0.6,0.3-0.6,0.6v0.2c0,0.3,0.3,0.6,0.6,0.6h12.5c0.3,0,0.6-0.3,0.6-0.6v-0.2
		C-393.2,132.5-393.4,132.2-393.8,132.2z"/>
	<path d="M-387.7,128.3h-24.8c0,0-5.5,0-5.5,5.3V152c0,0,0,0,0,0c0,0.7,0.6,1.3,1.4,1.3c0.7,0,1.4-0.6,1.4-1.3c0,0,0,0,0,0v-14.5
		h30.3V152c0,0,0,0,0,0c0.1,0.6,0.6,1.2,1.3,1.2s1.3-0.5,1.3-1.2c0,0,0,0,0,0v-18.4C-382.2,128.3-387.7,128.3-387.7,128.3z
		 M-384.9,134.8h-30.3v-1.3c0-1.3,0.4-1.9,1.2-2.3c0.6-0.3,1.2-0.4,1.5-0.4h24.8c0.3,0,0.9,0.1,1.5,0.4c0.8,0.4,1.2,1,1.2,2.3V134.8
		z"/>
</g>
</svg>
